<svg fill="none" xmlns="http://www.w3.org/2000/svg" viewBox="0 0 31.46 32" width="31.46" height="32"> <g clip-path="url(#clip0)"> <path d="M15.7311 32C13.6074 32 11.5624 31.56 9.59597 30.76C7.70824 29.96 6.05647 28.8 4.60134 27.32C3.14622 25.84 2.04504 24.12 1.21916 22.24C0.432605 20.24 0 18.16 0 16C0 13.84 0.432605 11.76 1.21916 9.76C2.00571 7.84 3.14622 6.16 4.60134 4.68C6.05647 3.2 7.70824 2.04 9.59597 1.24C11.5624 0.44 13.6074 0 15.7311 0C17.8548 0 19.8998 0.44 21.8662 1.24C23.754 2.04 25.4057 3.2 26.8608 4.68C28.316 6.16 29.4565 7.84 30.243 9.76C31.0296 11.76 31.4622 13.84 31.4622 16C31.4622 18.16 31.0296 20.24 30.243 22.24C29.4565 24.16 28.316 25.84 26.8608 27.32C25.4057 28.8 23.754 29.96 21.8662 30.76C19.8998 31.56 17.8548 32 15.7311 32ZM15.7311 2.48C13.922 2.48 12.1916 2.84 10.5398 3.56C8.96672 4.24 7.55092 5.2 6.29244 6.48C5.07328 7.72 4.09008 9.16 3.42151 10.8C2.75294 12.4 2.43832 14.16 2.43832 16C2.43832 17.84 2.75294 19.6 3.46084 21.28C4.12941 22.88 5.07328 24.32 6.33177 25.6C7.55092 26.84 8.96672 27.84 10.5792 28.52C12.1916 29.2 13.922 29.52 15.7311 29.52C17.5402 29.52 19.2706 29.16 20.9224 28.44C22.4955 27.76 23.9113 26.8 25.1697 25.52C26.3889 24.28 27.3721 22.84 28.0407 21.2C28.7092 19.6 29.0239 17.84 29.0239 16C29.0239 14.16 28.6699 12.4 27.962 10.72C27.2934 9.12 26.3496 7.68 25.0911 6.4C23.8719 5.16 22.4561 4.16 20.8437 3.48C19.2706 2.8 17.5402 2.48 15.7311 2.48Z" fill="#2D2832"></path> <path d="M31.4622 16H29.0239C29.0239 14.16 28.6699 12.4 27.962 10.72C27.2934 9.12 26.3496 7.68 25.0911 6.4C23.8719 5.16 22.4561 4.16 20.8437 3.48C19.2706 2.8 17.5402 2.48 15.7311 2.48V0C17.8548 0 19.8998 0.44 21.8662 1.24C23.7539 2.04 25.4057 3.2 26.8608 4.68C28.316 6.16 29.4565 7.84 30.243 9.76C31.0296 11.76 31.4622 13.84 31.4622 16Z" fill="#FA64FF"></path> <path d="M15.7311 32C13.6074 32 11.5624 31.56 9.59597 30.76C7.70824 29.96 6.05647 28.8 4.60134 27.32C3.14622 25.84 2.04504 24.12 1.21916 22.24C0.432605 20.24 0 18.16 0 16H2.43832C2.43832 17.84 2.79227 19.6 3.50017 21.28C4.16874 22.88 5.11261 24.32 6.37109 25.6C7.59025 26.84 9.00605 27.84 10.6185 28.52C12.1916 29.2 13.922 29.52 15.7311 29.52V32Z" fill="#FA64FF"></path> <path d="M21.3155 14.16C21.1582 11.4 18.9165 9.23999 16.1636 9.23999C13.8039 9.23999 11.8375 10.84 11.2083 13.04C10.933 13 10.697 12.96 10.4217 12.96C8.41603 12.96 6.80359 14.6 6.80359 16.64C6.80359 18.68 8.41603 20.32 10.4217 20.32H10.4611H21.2762H21.3155C22.9673 20.32 24.3438 18.96 24.3438 17.24C24.3438 15.52 23.0066 14.16 21.3155 14.16Z" fill="#2D2832"></path> </g> <defs> <clipPath id="clip0"> <rect width="31.4622" height="32" fill="white"></rect> </clipPath> </defs> </svg>