<svg fill="none" xmlns="http://www.w3.org/2000/svg" viewBox="0 0 31.46 32" width="31.46" height="32"> <g clip-path="url(#clip0)"> <path d="M15.7487 28.9422L0 21.8218V24.9213L15.7487 31.9998" fill="#2D2832"></path> <path d="M15.7483 28.9422L31.4618 21.8218V24.9213L15.7483 31.9998" fill="#2D2832"></path> <path d="M15.7487 21.7382L0 14.6597V17.7173L15.7487 24.8377" fill="#2D2832"></path> <path d="M15.7483 21.7382L31.4618 14.6597V17.7173L15.7483 24.8377" fill="#2D2832"></path> <path d="M15.7487 14.3666L0 7.28809V10.3457L15.7487 17.4242" fill="#FA64FF"></path> <path d="M15.7483 14.3666L31.4618 7.28809V10.3457L15.7483 17.4242" fill="#FA64FF"></path> <path d="M15.7487 3.05759L0 10.178V7.07853L15.7487 0" fill="#FA64FF"></path> <path d="M15.7483 3.05759L31.4618 10.178V7.07853L15.7483 0" fill="#FA64FF"></path> </g> <defs> <clipPath id="clip0"> <rect width="31.4622" height="32" fill="white"></rect> </clipPath> </defs> </svg>