<svg fill="none" xmlns="http://www.w3.org/2000/svg" viewBox="0.93 0 80 80" width="80" height="80"> <path d="M40.9297 0C18.8725 0 0.929688 17.9429 0.929688 40C0.929688 62.0571 18.8725 80 40.9297 80C62.9868 80 80.9297 62.0571 80.9297 40C80.9297 17.9429 62.9868 0 40.9297 0ZM40.9297 76C21.1011 76 4.92969 59.8286 4.92969 40C4.92969 20.1714 21.1011 4 40.9297 4C60.7583 4 76.9297 20.1714 76.9297 40C76.9297 59.8286 60.7583 76 40.9297 76Z" fill="#2D2832"></path> <path d="M41.5294 64.0243C42.4568 64.0243 43.2085 63.2726 43.2085 62.3452V59.2975H48.3434C53.9023 59.2975 58.4297 54.5344 58.4297 48.6861C58.4297 44.3571 55.9196 40.607 52.3894 38.9671C54.4869 37.0136 55.805 34.1799 55.805 31.0085C55.805 25.1723 51.2776 20.3972 45.7187 20.3972H43.2085V17.3672C43.2085 16.4367 42.4542 15.6824 41.5237 15.6824C40.5931 15.6824 39.8388 16.4367 39.8388 17.3672V20.4093H36.8015H34.7957V17.3672C34.7957 16.4367 34.0413 15.6824 33.1108 15.6824C32.1803 15.6824 31.4259 16.4367 31.4259 17.3672V20.4093H28.3273C27.3483 20.4093 26.5547 21.2029 26.5547 22.1818C26.5547 23.1608 27.3483 23.9544 28.3273 23.9544H31.4374V55.7644H28.3273C27.3483 55.7644 26.5547 56.558 26.5547 57.5369C26.5547 58.5159 27.3483 59.3095 28.3273 59.3095H31.4374V62.3515C31.4374 63.2821 32.1917 64.0364 33.1222 64.0364C34.0528 64.0364 34.8071 63.2821 34.8071 62.3515V59.2975H36.8129H39.8503V62.3452C39.8503 63.2726 40.602 64.0243 41.5294 64.0243ZM36.8015 23.9544H45.7072C49.4093 23.9544 52.4352 27.1378 52.4352 31.0206C52.4352 34.9155 49.4093 38.0868 45.7072 38.0868H34.7957V23.9544H36.8015ZM34.7957 55.7523V41.632H45.7072H48.3319C52.0341 41.632 55.0485 44.7913 55.0485 48.6861C55.0485 52.5809 52.0455 55.7523 48.3434 55.7523H36.8015H34.7957Z" fill="#FA64FF"></path> </svg>