<svg fill="none" xmlns="http://www.w3.org/2000/svg" viewBox="0.93 0 80 80" width="80" height="80"> <path d="M40.9297 0C18.8725 0 0.929688 17.9429 0.929688 40C0.929688 62.0571 18.8725 80 40.9297 80C62.9868 80 80.9297 62.0571 80.9297 40C80.9297 17.9429 62.9868 0 40.9297 0ZM40.9297 76C21.1011 76 4.92969 59.8286 4.92969 40C4.92969 20.1714 21.1011 4 40.9297 4C60.7583 4 76.9297 20.1714 76.9297 40C76.9297 59.8286 60.7583 76 40.9297 76Z" fill="#2D2832"></path> <path fill-rule="evenodd" clip-rule="evenodd" d="M46.2003 19.9601L56.8657 31.1504C57.3211 31.5869 57.3211 32.3408 56.8657 32.7773C56.6379 33.0154 56.3722 33.1345 56.0686 33.1345C55.7649 33.1345 55.4993 33.0154 55.3095 32.8964L52.8804 30.3567C52.349 31.6266 52.0074 32.9757 51.8935 34.4043C51.6658 37.2217 52.1972 40.9915 52.4249 42.42C52.5767 43.2136 52.6147 43.6105 52.1972 44.047C52.0833 44.166 51.9315 44.285 51.7797 44.3247L26.1979 53.6103C26.084 53.65 25.9702 53.6896 25.8183 53.6896C25.2111 53.769 24.6797 53.1738 24.6797 52.4992C24.6797 52.1024 24.8315 51.7452 25.1351 51.4675L39.5201 36.4281C39.9377 35.9519 40.6588 35.9519 41.1143 36.4281C41.5697 36.8646 41.5697 37.6185 41.1143 38.0947L30.1452 49.5627L50.1855 42.3406C49.9199 40.6343 49.4264 36.9836 49.6921 34.1265C49.8439 32.1424 50.3753 30.2774 51.2483 28.5314L48.7432 25.9124C46.8075 26.8647 44.7959 27.46 42.8222 27.6584C40.2793 27.8965 37.129 27.3806 35.5728 27.1028L30.2591 43.2136C30.1073 43.6898 29.6518 44.0073 29.1964 44.0073C29.0825 44.0073 28.9307 43.9676 28.8168 43.9279C28.2095 43.7295 27.9059 43.0549 28.0957 42.42L33.713 25.3568C33.751 25.1981 33.8648 25.0394 33.9787 24.9203C34.3943 24.4858 34.8099 24.5625 35.4502 24.6806L35.4589 24.6822C36.7115 24.9203 40.0515 25.5156 42.5945 25.2775C44.4164 25.1187 45.9725 24.5632 46.9973 24.1267L44.6061 21.6267C44.1507 21.1902 44.1507 20.4363 44.6061 19.9601C45.0236 19.4839 45.7448 19.4839 46.2003 19.9601ZM48.2879 57.38C47.9463 57.7372 47.5288 57.8959 47.0354 57.8165C46.5799 57.7372 46.2003 57.4594 45.9726 57.0229L44.834 54.761C44.3026 53.7293 43.2778 53.1341 42.1771 53.2531C41.0764 53.3722 40.1655 54.1261 39.8239 55.2372L39.0268 57.8959C39.0268 57.9356 38.9889 57.9753 38.913 57.9753C38.8371 57.9753 38.7991 57.9356 38.7991 57.8959L38.4575 57.2213C38.04 56.388 37.2809 55.8721 36.4079 55.8325C35.535 55.7928 34.6999 56.2689 34.2065 57.0626L33.1058 58.4118C32.6883 58.9276 32.7642 59.6816 33.2197 60.0784C33.4474 60.2768 33.7131 60.3562 33.9408 60.3562C34.2445 60.3562 34.5861 60.1974 34.8138 59.9197L35.9525 58.5308C35.9714 58.511 35.9904 58.4812 36.0094 58.4515C36.0284 58.4217 36.0473 58.3919 36.0663 58.3721C36.1422 58.253 36.2181 58.2134 36.2561 58.2134C36.2561 58.2134 36.2941 58.2134 36.332 58.2927L36.6736 58.9673C37.1291 59.88 38.04 60.4355 39.0268 60.3562C40.0137 60.2768 40.8487 59.6022 41.1144 58.6102L41.9114 55.9515C41.9873 55.6737 42.1771 55.634 42.291 55.634C42.4048 55.634 42.5946 55.634 42.7464 55.8721L43.8851 58.134C44.4544 59.2451 45.4412 59.9594 46.6179 60.1578C47.7945 60.3562 48.9711 59.9594 49.8061 59.0467C50.2615 58.5705 50.2615 57.8165 49.8061 57.38C49.4645 56.9039 48.7433 56.9039 48.2879 57.38ZM28.4752 60.3959C29.1041 60.3959 29.6139 59.8629 29.6139 59.2054C29.6139 58.548 29.1041 58.015 28.4752 58.015C27.8463 58.015 27.3365 58.548 27.3365 59.2054C27.3365 59.8629 27.8463 60.3959 28.4752 60.3959Z" fill="#FA64FF"></path> <path d="M56.8657 31.1504L56.5037 31.4953L56.5115 31.5035L56.5197 31.5114L56.8657 31.1504ZM46.2003 19.9601L46.5622 19.6151L46.5616 19.6145L46.2003 19.9601ZM56.8657 32.7773L56.5197 32.4163L56.5118 32.4239L56.5043 32.4317L56.8657 32.7773ZM55.3095 32.8964L54.9482 33.242L54.9911 33.2869L55.0438 33.3199L55.3095 32.8964ZM52.8804 30.3567L53.2417 30.0111L52.7139 29.4593L52.4191 30.1637L52.8804 30.3567ZM51.8935 34.4043L52.3919 34.4446L52.3919 34.444L51.8935 34.4043ZM52.4249 42.42L51.9311 42.4987L51.9323 42.5064L51.9338 42.514L52.4249 42.42ZM52.1972 44.047L51.8358 43.7014H51.8358L52.1972 44.047ZM51.7797 44.3247L51.6532 43.841L51.6308 43.8468L51.6091 43.8547L51.7797 44.3247ZM26.1979 53.6103L26.3625 54.0825L26.3685 54.0803L26.1979 53.6103ZM25.8183 53.6896V53.1896H25.7858L25.7536 53.1939L25.8183 53.6896ZM25.1351 51.4675L25.4726 51.8364L25.4849 51.8251L25.4965 51.8131L25.1351 51.4675ZM39.5201 36.4281L39.8815 36.7737L39.889 36.7658L39.8961 36.7577L39.5201 36.4281ZM41.1143 36.4281L40.7529 36.7737L40.7605 36.7815L40.7683 36.789L41.1143 36.4281ZM41.1143 38.0947L40.7529 37.7491V37.7491L41.1143 38.0947ZM30.1452 49.5627L29.7839 49.2171L30.3147 50.0331L30.1452 49.5627ZM50.1855 42.3406L50.3551 42.811L50.743 42.6712L50.6796 42.2637L50.1855 42.3406ZM49.6921 34.1265L50.19 34.1728L50.1907 34.1647L49.6921 34.1265ZM51.2483 28.5314L51.6955 28.755L51.8529 28.4401L51.6096 28.1858L51.2483 28.5314ZM48.7432 25.9124L49.1046 25.5668L48.8513 25.302L48.5225 25.4637L48.7432 25.9124ZM42.8222 27.6584L42.8689 28.1562L42.8723 28.1559L42.8222 27.6584ZM35.5728 27.1028L35.6607 26.6106L35.2338 26.5344L35.098 26.9462L35.5728 27.1028ZM30.2591 43.2136L29.7842 43.057L29.7827 43.0618L30.2591 43.2136ZM28.8168 43.9279L28.9814 43.4557L28.9721 43.4526L28.8168 43.9279ZM28.0957 42.42L27.6205 42.2636L27.6166 42.2768L28.0957 42.42ZM33.713 25.3568L34.1879 25.5132L34.1945 25.4934L34.1993 25.4731L33.713 25.3568ZM33.9787 24.9203L33.6174 24.5747L33.6174 24.5747L33.9787 24.9203ZM35.4502 24.6806L35.541 24.1889L35.541 24.1889L35.4502 24.6806ZM35.4589 24.6822L35.5523 24.191L35.5497 24.1905L35.4589 24.6822ZM42.5945 25.2775L42.5511 24.7793L42.5479 24.7796L42.5945 25.2775ZM46.9973 24.1267L47.1932 24.5867L47.8583 24.3034L47.3586 23.7811L46.9973 24.1267ZM44.6061 21.6267L44.9675 21.2811L44.9599 21.2733L44.9521 21.2658L44.6061 21.6267ZM44.6061 19.9601L44.9675 20.3057L44.975 20.2979L44.9821 20.2897L44.6061 19.9601ZM47.0354 57.8165L46.9495 58.3092L46.956 58.3102L47.0354 57.8165ZM48.2879 57.38L47.9266 57.0344H47.9266L48.2879 57.38ZM45.9726 57.0229L45.526 57.2478L45.5293 57.2542L45.9726 57.0229ZM44.834 54.761L45.2806 54.5362L45.2785 54.5321L44.834 54.761ZM42.1771 53.2531L42.2309 53.7502L42.1771 53.2531ZM39.8239 55.2372L39.3459 55.0903L39.3449 55.0936L39.8239 55.2372ZM39.0268 57.8959L38.5479 57.7523L38.5268 57.8226V57.8959H39.0268ZM38.7991 57.8959H39.2991V57.7765L39.2452 57.67L38.7991 57.8959ZM38.4575 57.2213L38.0105 57.4453L38.0114 57.4472L38.4575 57.2213ZM36.4079 55.8325L36.3852 56.3319H36.3852L36.4079 55.8325ZM34.2065 57.0626L34.5939 57.3787L34.6142 57.3538L34.6311 57.3266L34.2065 57.0626ZM33.1058 58.4118L32.7184 58.0957L32.7172 58.0972L33.1058 58.4118ZM33.2197 60.0784L33.5481 59.7014L33.5481 59.7014L33.2197 60.0784ZM34.8138 59.9197L35.2005 60.2367L34.8138 59.9197ZM35.9525 58.5308L35.5911 58.1852L35.5779 58.199L35.5658 58.2138L35.9525 58.5308ZM36.0094 58.4515L35.5878 58.1826L35.5878 58.1826L36.0094 58.4515ZM36.0663 58.3721L36.4276 58.7177L36.4615 58.6823L36.4879 58.6409L36.0663 58.3721ZM36.2561 58.2134V58.7134H36.2562L36.2561 58.2134ZM36.332 58.2927L35.8808 58.5085L35.8859 58.5186L36.332 58.2927ZM36.6736 58.9673L37.121 58.744L37.1197 58.7414L36.6736 58.9673ZM39.0268 60.3562L38.9867 59.8578H38.9867L39.0268 60.3562ZM41.1144 58.6102L40.6354 58.4666L40.6333 58.4737L40.6314 58.4808L41.1144 58.6102ZM41.9114 55.9515L42.3905 56.0951L42.3937 56.0833L41.9114 55.9515ZM42.7464 55.8721L43.193 55.6473L43.1816 55.6247L43.168 55.6033L42.7464 55.8721ZM43.8851 58.134L43.4385 58.3588L43.4401 58.362L43.8851 58.134ZM46.6179 60.1578L46.5347 60.6508H46.5347L46.6179 60.1578ZM49.8061 59.0467L49.4447 58.701L49.4372 58.7092L49.8061 59.0467ZM49.8061 57.38L49.3998 57.6715L49.4268 57.709L49.4601 57.741L49.8061 57.38ZM57.2276 30.8054L46.5622 19.6151L45.8383 20.3051L56.5037 31.4953L57.2276 30.8054ZM57.2116 33.1383C57.8725 32.505 57.8725 31.4227 57.2116 30.7894L56.5197 31.5114C56.7698 31.751 56.7698 32.1767 56.5197 32.4163L57.2116 33.1383ZM56.0686 33.6345C56.5211 33.6345 56.9138 33.4503 57.227 33.1229L56.5043 32.4317C56.362 32.5805 56.2234 32.6345 56.0686 32.6345V33.6345ZM55.0438 33.3199C55.2776 33.4666 55.6363 33.6345 56.0686 33.6345V32.6345C55.8935 32.6345 55.7209 32.5642 55.5752 32.4728L55.0438 33.3199ZM52.519 30.7023L54.9482 33.242L55.6708 32.5508L53.2417 30.0111L52.519 30.7023ZM52.3919 34.444C52.5014 33.0705 52.8298 31.7729 53.3416 30.5497L52.4191 30.1637C51.8682 31.4802 51.5134 32.881 51.3951 34.3646L52.3919 34.444ZM52.9187 42.3413C52.6906 40.9109 52.1696 37.1953 52.3919 34.4446L51.3951 34.364C51.162 37.2481 51.7037 41.072 51.9311 42.4987L52.9187 42.3413ZM52.5585 44.3926C52.8373 44.101 52.9871 43.7899 53.0223 43.4141C53.0538 43.0789 52.9898 42.7117 52.916 42.3261L51.9338 42.514C52.0118 42.9219 52.0427 43.15 52.0267 43.3207C52.0145 43.4508 51.9745 43.5564 51.8358 43.7014L52.5585 44.3926ZM51.9061 44.8085C52.1921 44.7337 52.4225 44.5347 52.5585 44.3926L51.8358 43.7014C51.7968 43.7422 51.7553 43.7785 51.7167 43.8054C51.6979 43.8186 51.6822 43.8277 51.6701 43.8337C51.6579 43.8398 51.6523 43.8412 51.6532 43.841L51.9061 44.8085ZM26.3685 54.0803L51.9503 44.7947L51.6091 43.8547L26.0273 53.1403L26.3685 54.0803ZM25.8183 54.1896C26.0633 54.1896 26.2487 54.1221 26.3624 54.0824L26.0333 53.1381C25.9193 53.1779 25.877 53.1896 25.8183 53.1896V54.1896ZM24.1797 52.4992C24.1797 52.9646 24.3616 53.4038 24.6561 53.7187C24.952 54.0351 25.3891 54.25 25.8831 54.1854L25.7536 53.1939C25.6403 53.2086 25.5081 53.1656 25.3865 53.0356C25.2634 52.9041 25.1797 52.7083 25.1797 52.4992H24.1797ZM24.7977 51.0985C24.389 51.4724 24.1797 51.964 24.1797 52.4992H25.1797C25.1797 52.2407 25.274 52.0181 25.4726 51.8364L24.7977 51.0985ZM39.1588 36.0824L24.7738 51.1219L25.4965 51.8131L39.8815 36.7737L39.1588 36.0824ZM41.4756 36.0824C40.8322 35.4098 39.7691 35.3857 39.1442 36.0984L39.8961 36.7577C40.1062 36.5181 40.4854 36.4939 40.7529 36.7737L41.4756 36.0824ZM41.4756 38.4403C42.1075 37.7797 42.1295 36.7085 41.4602 36.0671L40.7683 36.789C41.0099 37.0206 41.032 37.4574 40.7529 37.7491L41.4756 38.4403ZM30.5066 49.9083L41.4756 38.4403L40.7529 37.7491L29.7839 49.2171L30.5066 49.9083ZM50.016 41.8703L29.9757 49.0923L30.3147 50.0331L50.3551 42.811L50.016 41.8703ZM49.1943 34.0802C48.9222 37.0059 49.426 40.7123 49.6915 42.4176L50.6796 42.2637C50.4137 40.5563 49.9307 36.9613 50.19 34.1728L49.1943 34.0802ZM50.8011 28.3078C49.9 30.1099 49.3505 32.0378 49.1936 34.0884L50.1907 34.1647C50.3374 32.247 50.8506 30.4448 51.6955 28.755L50.8011 28.3078ZM48.3819 26.258L50.887 28.877L51.6096 28.1858L49.1046 25.5668L48.3819 26.258ZM42.8723 28.1559C44.9107 27.9509 46.9799 27.3372 48.964 26.361L48.5225 25.4637C46.6352 26.3923 44.6811 26.969 42.7722 27.1609L42.8723 28.1559ZM35.485 27.595C37.036 27.8719 40.2493 28.4015 42.8689 28.1562L42.7756 27.1606C40.3092 27.3915 37.2219 26.8893 35.6607 26.6106L35.485 27.595ZM30.7339 43.3703L36.0477 27.2594L35.098 26.9462L29.7843 43.057L30.7339 43.3703ZM29.1964 44.5073C29.87 44.5073 30.5177 44.0485 30.7355 43.3655L29.7827 43.0618C29.6968 43.3311 29.4336 43.5073 29.1964 43.5073V44.5073ZM28.6523 44.4001C28.7801 44.4446 28.9964 44.5073 29.1964 44.5073V43.5073C29.1965 43.5073 29.1944 43.5073 29.19 43.5069C29.1856 43.5066 29.1797 43.506 29.1722 43.505C29.1569 43.5029 29.1379 43.4995 29.1159 43.4946C29.0711 43.4845 29.0233 43.4704 28.9813 43.4558L28.6523 44.4001ZM27.6166 42.2768C27.3609 43.1321 27.759 44.1083 28.6615 44.4032L28.9721 43.4526C28.66 43.3507 28.4508 42.9777 28.5747 42.5632L27.6166 42.2768ZM33.2381 25.2005L27.6207 42.2637L28.5706 42.5764L34.1879 25.5132L33.2381 25.2005ZM33.6174 24.5747C33.4792 24.7192 33.2949 24.9554 33.2267 25.2405L34.1993 25.4731C34.207 25.4408 34.2505 25.3596 34.34 25.2659L33.6174 24.5747ZM35.541 24.1889C35.2419 24.1337 34.9045 24.0677 34.5872 24.0951C34.227 24.1262 33.907 24.2719 33.6174 24.5747L34.34 25.2659C34.466 25.1342 34.5616 25.101 34.6732 25.0914C34.8277 25.078 35.0183 25.1094 35.3595 25.1723L35.541 24.1889ZM35.5497 24.1905L35.541 24.1889L35.3595 25.1723L35.3682 25.1739L35.5497 24.1905ZM42.5479 24.7796C40.0855 25.0102 36.8124 24.4306 35.5523 24.191L35.3656 25.1734C36.6105 25.4101 40.0175 26.0209 42.6411 25.7753L42.5479 24.7796ZM46.8014 23.6667C45.8017 24.0925 44.3 24.627 42.5511 24.7794L42.6379 25.7756C44.5328 25.6105 46.1434 25.0339 47.1932 24.5867L46.8014 23.6667ZM44.2448 21.9723L46.636 24.4723L47.3586 23.7811L44.9675 21.2811L44.2448 21.9723ZM44.2448 19.6145C43.6129 20.2751 43.5909 21.3463 44.2602 21.9877L44.9521 21.2658C44.7105 21.0342 44.6884 20.5974 44.9675 20.3057L44.2448 19.6145ZM46.5616 19.6145C45.9182 18.9419 44.8551 18.9177 44.2302 19.6305L44.9821 20.2897C45.1922 20.0501 45.5714 20.026 45.8389 20.3057L46.5616 19.6145ZM46.956 58.3102C47.6251 58.4178 48.2037 58.1915 48.6492 57.7256L47.9266 57.0344C47.6889 57.2829 47.4325 57.374 47.1148 57.3229L46.956 58.3102ZM45.5293 57.2542C45.8264 57.8236 46.3352 58.2021 46.9495 58.3091L47.1212 57.324C46.8246 57.2723 46.5743 57.0952 46.4159 56.7916L45.5293 57.2542ZM44.3874 54.9859L45.526 57.2477L46.4192 56.7981L45.2806 54.5362L44.3874 54.9859ZM42.2309 53.7502C43.1061 53.6556 43.9432 54.1236 44.3895 54.99L45.2785 54.5321C44.662 53.3351 43.4495 52.6126 42.1233 52.756L42.2309 53.7502ZM40.3018 55.3842C40.5865 54.458 41.335 53.8471 42.2309 53.7502L42.1233 52.756C40.8178 52.8972 39.7444 53.7942 39.346 55.0903L40.3018 55.3842ZM39.5058 58.0395L40.3028 55.3808L39.3449 55.0936L38.5479 57.7523L39.5058 58.0395ZM38.913 58.4753C39.145 58.4753 39.5268 58.3181 39.5268 57.8959H38.5268C38.5268 57.7485 38.5991 57.6281 38.6898 57.557C38.7781 57.4878 38.8662 57.4753 38.913 57.4753V58.4753ZM38.2991 57.8959C38.2991 58.3181 38.681 58.4753 38.913 58.4753V57.4753C38.9598 57.4753 39.0479 57.4878 39.1361 57.557C39.2268 57.6281 39.2991 57.7485 39.2991 57.8959H38.2991ZM38.0114 57.4472L38.353 58.1218L39.2452 57.67L38.9036 56.9954L38.0114 57.4472ZM36.3852 56.3319C37.0621 56.3627 37.667 56.7598 38.0105 57.4453L38.9045 56.9973C38.413 56.0162 37.4997 55.3816 36.4306 55.333L36.3852 56.3319ZM34.6311 57.3266C35.0405 56.6682 35.7136 56.3014 36.3852 56.3319L36.4306 55.333C35.3563 55.2841 34.3594 55.8697 33.7819 56.7986L34.6311 57.3266ZM33.4932 58.7278L34.5939 57.3787L33.8191 56.7465L32.7184 58.0957L33.4932 58.7278ZM33.5481 59.7014C33.3015 59.4866 33.2412 59.0392 33.4945 58.7263L32.7172 58.0972C32.1354 58.816 32.2269 59.8766 32.8912 60.4554L33.5481 59.7014ZM33.9408 59.8562C33.8258 59.8562 33.679 59.8154 33.5481 59.7014L32.8912 60.4554C33.2159 60.7382 33.6004 60.8562 33.9408 60.8562V59.8562ZM34.4271 59.6027C34.2879 59.7725 34.0848 59.8562 33.9408 59.8562V60.8562C34.4042 60.8562 34.8842 60.6224 35.2005 60.2367L34.4271 59.6027ZM35.5658 58.2138L34.4271 59.6027L35.2005 60.2367L36.3391 58.8478L35.5658 58.2138ZM35.5878 58.1826C35.5828 58.1904 35.5794 58.1958 35.5762 58.2008C35.573 58.2056 35.5713 58.2081 35.5705 58.2093C35.5696 58.2106 35.5706 58.209 35.5734 58.2055C35.5759 58.2022 35.5819 58.1948 35.5911 58.1852L36.3138 58.8764C36.3741 58.8133 36.4213 58.7354 36.431 58.7203L35.5878 58.1826ZM35.705 58.0265C35.6447 58.0896 35.5975 58.1675 35.5878 58.1826L36.431 58.7203C36.4359 58.7125 36.4394 58.7071 36.4426 58.7021C36.4457 58.6974 36.4475 58.6948 36.4483 58.6936C36.4492 58.6923 36.4481 58.6939 36.4454 58.6974C36.4428 58.7007 36.4369 58.7081 36.4276 58.7177L35.705 58.0265ZM36.2561 57.7134C36.0867 57.7134 35.954 57.7894 35.8763 57.8475C35.7861 57.9148 35.7089 58.0026 35.6447 58.1033L36.4879 58.6409C36.4996 58.6225 36.4984 58.6309 36.4746 58.6487C36.4628 58.6576 36.4416 58.6714 36.4104 58.6842C36.3822 58.6957 36.3287 58.7134 36.2561 58.7134V57.7134ZM36.7831 58.077C36.7366 57.9798 36.6675 57.884 36.5657 57.8131C36.515 57.7777 36.4609 57.752 36.4057 57.7355C36.3785 57.7274 36.3521 57.7218 36.3268 57.7183C36.3142 57.7165 36.302 57.7153 36.2901 57.7145C36.2842 57.7141 36.2784 57.7138 36.2727 57.7136C36.2699 57.7135 36.2671 57.7135 36.2643 57.7134C36.2629 57.7134 36.2615 57.7134 36.2602 57.7134C36.2595 57.7134 36.2588 57.7134 36.2581 57.7134C36.2578 57.7134 36.2572 57.7134 36.2571 57.7134C36.2566 57.7134 36.256 57.7134 36.2561 58.2134C36.2562 58.7134 36.2556 58.7134 36.2551 58.7134C36.255 58.7134 36.2544 58.7134 36.2541 58.7134C36.2534 58.7134 36.2527 58.7133 36.2521 58.7133C36.2507 58.7133 36.2493 58.7133 36.2479 58.7133C36.2452 58.7132 36.2424 58.7132 36.2397 58.7131C36.2341 58.7129 36.2286 58.7126 36.2229 58.7122C36.2117 58.7115 36.2003 58.7103 36.1888 58.7087C36.1658 58.7055 36.1426 58.7006 36.1196 58.6937C36.0727 58.6797 36.0304 58.6589 35.9939 58.6335C35.9206 58.5824 35.8895 58.5263 35.8809 58.5084L36.7831 58.077ZM37.1197 58.7414L36.7781 58.0668L35.8859 58.5186L36.2275 59.1932L37.1197 58.7414ZM38.9867 59.8578C38.2218 59.9193 37.4939 59.4913 37.121 58.744L36.2262 59.1906C36.7642 60.2687 37.8582 60.9518 39.0669 60.8546L38.9867 59.8578ZM40.6314 58.4808C40.421 59.2662 39.7652 59.7952 38.9867 59.8578L39.0669 60.8546C40.2622 60.7584 41.2763 59.9382 41.5973 58.7395L40.6314 58.4808ZM41.4325 55.8079L40.6354 58.4666L41.5933 58.7538L42.3904 56.0951L41.4325 55.8079ZM42.291 55.134C42.1808 55.134 42.0006 55.1525 41.8213 55.265C41.6302 55.3849 41.4956 55.5764 41.4291 55.8197L42.3937 56.0833C42.3995 56.0623 42.4027 56.0624 42.395 56.0733C42.3867 56.0851 42.3724 56.0998 42.3527 56.1122C42.334 56.1239 42.3172 56.1294 42.3065 56.1318C42.3013 56.133 42.2974 56.1336 42.295 56.1338C42.2926 56.134 42.2912 56.134 42.291 56.134V55.134ZM43.168 55.6033C43.0362 55.3966 42.8655 55.2641 42.6776 55.1947C42.5041 55.1307 42.3463 55.134 42.291 55.134V56.134C42.3059 56.134 42.3145 56.1341 42.3228 56.1343C42.3304 56.1345 42.335 56.1349 42.3377 56.1351C42.3428 56.1357 42.3392 56.1358 42.3314 56.1329C42.3275 56.1315 42.3233 56.1296 42.3193 56.1273C42.3152 56.125 42.3123 56.1228 42.3106 56.1215C42.3067 56.1183 42.3126 56.1218 42.3248 56.141L43.168 55.6033ZM44.3317 57.9092L43.193 55.6473L42.2998 56.097L43.4385 58.3588L44.3317 57.9092ZM46.701 59.6647C45.6818 59.4929 44.8282 58.8781 44.3301 57.906L43.4401 58.362C44.0806 59.612 45.2007 60.4258 46.5347 60.6508L46.701 59.6647ZM49.4372 58.7092C48.7161 59.4974 47.7094 59.8348 46.701 59.6647L46.5347 60.6508C47.8796 60.8776 49.2261 60.4213 50.175 59.3842L49.4372 58.7092ZM49.4601 57.741C49.7017 57.9726 49.7238 58.4093 49.4448 58.7011L50.1674 59.3923C50.7993 58.7316 50.8214 57.6605 50.152 57.0191L49.4601 57.741ZM48.6492 57.7256C48.9405 57.4211 49.2823 57.5076 49.3998 57.6715L50.2124 57.0886C49.6467 56.3001 48.5461 56.3867 47.9266 57.0344L48.6492 57.7256ZM29.1139 59.2054C29.1139 59.608 28.8072 59.8959 28.4752 59.8959V60.8959C29.4009 60.8959 30.1139 60.1179 30.1139 59.2054H29.1139ZM28.4752 58.515C28.8072 58.515 29.1139 58.8029 29.1139 59.2054H30.1139C30.1139 58.293 29.4009 57.515 28.4752 57.515V58.515ZM27.8365 59.2054C27.8365 58.8029 28.1432 58.515 28.4752 58.515V57.515C27.5495 57.515 26.8365 58.293 26.8365 59.2054H27.8365ZM28.4752 59.8959C28.1432 59.8959 27.8365 59.608 27.8365 59.2054H26.8365C26.8365 60.1179 27.5495 60.8959 28.4752 60.8959V59.8959Z" fill="#FA64FF"></path> </svg>