<svg fill="none" xmlns="http://www.w3.org/2000/svg" viewBox="0.93 0 80 80" width="80" height="80"> <path d="M40.9297 0C18.8725 0 0.929688 17.9429 0.929688 40C0.929688 62.0571 18.8725 80 40.9297 80C62.9868 80 80.9297 62.0571 80.9297 40C80.9297 17.9429 62.9868 0 40.9297 0ZM40.9297 76C21.1011 76 4.92969 59.8286 4.92969 40C4.92969 20.1714 21.1011 4 40.9297 4C60.7583 4 76.9297 20.1714 76.9297 40C76.9297 59.8286 60.7583 76 40.9297 76Z" fill="#2D2832"></path> <path fill-rule="evenodd" clip-rule="evenodd" d="M41.2422 23.148C36.9128 23.148 33.4293 26.5433 33.4297 30.7003C33.4301 34.857 36.9136 38.2511 41.2422 38.2511C47.613 38.2511 52.8034 43.2562 52.8028 49.4611C52.8022 55.6654 47.6117 60.6688 41.2422 60.6688C34.8725 60.6688 29.6822 55.6654 29.6816 49.4611C29.6815 48.4501 30.5208 47.6305 31.5564 47.6304C32.5919 47.6303 33.4315 48.4498 33.4316 49.4607C33.432 53.615 36.9143 57.0079 41.2422 57.0079C45.5699 57.0079 49.0524 53.615 49.0528 49.4607C49.0532 45.306 45.5707 41.912 41.2422 41.912C34.8711 41.912 29.6803 36.9067 29.6797 30.7007C29.6791 24.4942 34.8699 19.4871 41.2422 19.4871C47.6144 19.4871 52.8053 24.4942 52.8047 30.7007C52.8046 31.7116 51.965 32.5311 50.9295 32.531C49.894 32.5309 49.0546 31.7113 49.0547 30.7003C49.0551 26.5433 45.5714 23.148 41.2422 23.148Z" fill="#FA64FF"></path> <path fill-rule="evenodd" clip-rule="evenodd" d="M41.2412 16C42.2767 16 43.1162 16.8195 43.1162 17.8305V21.3176C43.1162 22.3285 42.2767 23.148 41.2412 23.148C40.2057 23.148 39.3662 22.3285 39.3662 21.3176V17.8305C39.3662 16.8195 40.2057 16 41.2412 16Z" fill="#FA64FF"></path> <path fill-rule="evenodd" clip-rule="evenodd" d="M41.2412 57.0079C42.2767 57.0079 43.1162 57.8274 43.1162 58.8383V62.3225C43.1162 63.3334 42.2767 64.153 41.2412 64.153C40.2057 64.153 39.3662 63.3334 39.3662 62.3225V58.8383C39.3662 57.8274 40.2057 57.0079 41.2412 57.0079Z" fill="#FA64FF"></path> </svg>