<svg xmlns="http://www.w3.org/2000/svg" fill="none" viewBox="0 0 180.53 32" width="180.53" height="32">
<path d="M14.6605 0C22.8264 0 29.321 6.49453 29.321 14.6605C29.321 22.8254 22.8264 29.321 14.6605 29.321C6.49453 29.321 0 22.8254 0 14.6594C0 6.49453 6.49453 0 14.6605 0ZM21.9746 10.9717V8.54407H7.3453V10.9717H21.9746ZM19.547 20.7758H21.9746V13.4305H7.3453V20.7758H9.77296V18.0012C9.77296 17.2138 9.96306 16.7713 10.2466 16.4565C10.5614 16.0784 11.0351 15.8572 11.6023 15.8572C12.1695 15.8572 12.6421 16.0774 12.9579 16.4565C13.2415 16.7713 13.4316 17.2138 13.4316 18.0012V20.7758H15.8904V18.0012C15.8904 17.2138 16.0795 16.7713 16.3641 16.4565C16.6789 16.0784 17.1515 15.8572 17.7197 15.8572C18.2879 15.8572 18.7596 16.0774 19.0753 16.4565C19.3589 16.7713 19.549 17.2138 19.549 18.0012V20.7758H19.547Z" fill="#f15833"/>
<path d="M38.2516 9.14232C38.2516 11.7902 42.0349 12.3262 44.8729 13.9654C46.6378 14.9741 48.089 16.6144 48.089 19.3879C48.089 23.3603 44.8417 25.8513 41.2475 25.8513C37.6533 25.8513 35.0677 24.1175 34.0591 23.0144L35.4781 20.0195H35.6038C36.8015 21.1861 38.6308 22.2903 40.9941 22.2903C42.5387 22.2903 44.2102 21.3762 44.2102 19.5791C44.2102 16.899 40.4269 16.363 37.5899 14.7238C35.824 13.7151 34.3738 12.0759 34.3738 9.30126C34.3738 5.32891 37.6523 2.83789 41.3099 2.83789C44.7462 2.83789 47.0793 4.57164 48.088 5.51797L46.669 8.51281H46.5422C45.3123 7.40962 43.7676 6.40095 41.6246 6.40095C39.9231 6.39991 38.2516 7.31405 38.2516 9.14232ZM55.6545 25.3786H53.1323L48.6552 12.7677H52.3761L54.5835 19.1677H54.7092L57.8308 10.2455H60.353L63.6325 19.2622H63.7592L66.9119 10.2455H70.4428L65.0525 25.3786H62.5937L59.1251 15.8571H58.9994L55.6545 25.3786ZM75.7375 7.56647H71.9854V3.94109H75.7375V7.56647ZM75.6741 25.3786H72.0488V10.2455H75.6741V25.3786ZM84.1226 25.8513C81.9796 25.8513 79.8989 25.0317 78.4477 23.6439L79.4564 20.9326H79.5831C80.7185 21.9413 82.1676 22.7297 83.8391 22.7297C85.1001 22.7297 85.9198 22.1937 85.9198 21.2484C85.9198 20.2709 84.8789 19.8928 83.5866 19.4825C81.5059 18.8207 78.7625 17.811 78.7625 14.6583C78.7625 11.758 81.0322 9.77183 84.2795 9.77183C86.0454 9.77183 87.8426 10.4024 89.3239 11.5689L88.3152 14.3114H88.1885C87.1164 13.4606 85.7296 12.8924 84.5631 12.8924C83.1451 12.8924 82.3255 13.4284 82.3255 14.3737C82.3255 15.3512 83.3654 15.7293 84.6587 16.1396C86.7394 16.8024 89.4828 17.81 89.4828 20.9638C89.4828 23.8651 87.2131 25.8513 84.1226 25.8513ZM97.0805 25.8513C94.9375 25.8513 92.8568 25.0317 91.4056 23.6439L92.4153 20.9326H92.541C93.6764 21.9413 95.1266 22.7297 96.7969 22.7297C98.058 22.7297 98.8776 22.1937 98.8776 21.2484C98.8776 20.2709 97.8368 19.8928 96.5445 19.4825C94.4638 18.8207 91.7204 17.811 91.7204 14.6583C91.7204 11.758 93.9912 9.77183 97.2384 9.77183C99.0033 9.77183 100.8 10.4024 102.282 11.5689L101.273 14.3114H101.146C100.074 13.4606 98.6865 12.8924 97.521 12.8924C96.102 12.8924 95.2824 13.4284 95.2824 14.3737C95.2824 15.3512 96.3222 15.7293 97.6155 16.1396C99.6962 16.8024 102.44 17.81 102.44 20.9638C102.441 23.8651 100.171 25.8513 97.0805 25.8513ZM115.808 11.1607V10.2466H119.119V31.9999H115.493V24.2754C114.452 25.2519 112.94 25.8513 111.49 25.8513C107.203 25.8513 104.459 22.5407 104.459 17.97C104.459 13.6829 107.392 9.77287 111.868 9.77287C113.255 9.77287 114.611 10.3089 115.682 11.1597H115.808V11.1607ZM115.493 14.1867C114.736 13.4928 113.538 13.0835 112.435 13.0835C109.85 13.0835 108.179 15.1008 108.179 17.9388C108.179 20.4922 109.629 22.5417 112.215 22.5417C113.445 22.5417 114.611 22.0691 115.493 21.1227V14.1867ZM122.177 10.2455H125.802V19.2934C125.802 20.6168 126.022 21.185 126.401 21.6577C126.874 22.2249 127.631 22.603 128.482 22.603C129.333 22.603 130.09 22.2249 130.563 21.6577C130.941 21.184 131.162 20.6168 131.162 19.2934V10.2455H134.788V18.9153C134.788 21.3741 134.125 22.9188 132.991 24.023C131.856 25.1584 130.248 25.8513 128.325 25.8513C126.559 25.8513 125.015 25.1896 123.912 24.0864C122.808 22.9832 122.178 21.4063 122.178 18.9153V10.2455H122.177ZM137.278 17.97C137.278 13.1458 140.556 9.77287 145.159 9.77287C149.762 9.77287 153.04 13.1458 153.04 17.6542C153.04 22.4783 149.762 25.8513 145.159 25.8513C140.556 25.8513 137.278 22.4783 137.278 17.97ZM145.16 13.0835C142.732 13.0835 140.999 15.133 140.999 17.8121C140.999 20.4922 142.732 22.5417 145.16 22.5417C147.588 22.5417 149.321 20.4922 149.321 17.8121C149.321 15.133 147.588 13.0835 145.16 13.0835ZM165.336 22.415V25.2207C164.36 25.6311 163.287 25.8513 162.09 25.8513C160.481 25.8513 159.284 25.3786 158.465 24.559C157.581 23.6761 157.14 22.3838 157.14 20.0818V13.3983H153.673V10.2455H157.14V5.20114H160.766V10.2455H165.336V13.3983H160.766V20.5545C160.766 21.3429 160.924 21.7844 161.176 22.068C161.618 22.5718 162.343 22.6986 163.131 22.6986C163.951 22.6986 164.927 22.5095 165.212 22.415H165.336ZM178.799 20.9648L180.155 23.487C178.737 25.0005 176.624 25.8513 174.227 25.8513C169.815 25.8513 166.503 22.7308 166.503 17.97C166.503 13.6195 169.152 9.77287 173.849 9.77287C177.853 9.77287 180.533 12.9568 180.533 17.3394V18.5372H170.287C170.382 20.9014 172.021 22.6674 174.418 22.6674C175.962 22.6674 177.381 22.0368 178.674 20.9648H178.799ZM176.908 15.7002C176.876 14.2812 175.772 12.8633 173.913 12.8633C172.083 12.8633 170.855 14.0932 170.475 15.7002H176.908Z" fill="#2D2832"/>
</svg>