<svg xmlns="http://www.w3.org/2000/svg" fill="none" viewBox="0.95 0.27 142.52 34.39" width="142.52" height="34.39">
<path fill-rule="evenodd" clip-rule="evenodd" d="M18.4317 0.273926L0.945312 8.76904L13.2151 14.8545L31.5464 4.9351L18.4317 0.273926Z" fill="#d9d9d9"/>
<path fill-rule="evenodd" clip-rule="evenodd" d="M35.2537 23.9162L18.3496 34.6653L13.2148 14.8541L31.5462 4.93506L35.2537 23.9162Z" fill="#ececec"/>
<path fill-rule="evenodd" clip-rule="evenodd" d="M6.34849 26.9583L0.945312 8.76904L13.2151 14.8545L18.3502 34.6657L6.34849 26.9583Z" fill="#9c9b9b"/>
<path fill-rule="evenodd" clip-rule="evenodd" d="M7.54866 10.9602C7.51036 10.9791 7.33866 11.2929 7.38724 11.3349C7.40289 11.3831 7.6553 11.5984 7.68907 11.5379C7.71707 11.4868 7.91142 11.2155 7.85007 11.1628C7.83483 11.115 7.58242 10.8992 7.54866 10.9602ZM12.6508 28.6624C12.6282 28.6665 12.5224 28.7426 12.5368 28.7958C12.5438 28.8304 12.6352 28.9144 12.6652 28.9057C12.6867 28.8999 12.8028 28.8188 12.7921 28.7686C12.7888 28.7324 12.6941 28.65 12.6508 28.6624ZM6.86718 8.60612C7.01048 8.72965 7.42183 8.68929 7.53013 8.49329C7.5853 8.39447 7.66436 8.29153 7.70307 8.182C7.77348 8.05559 7.70924 7.84682 7.68948 7.71094C7.66683 7.55735 7.77636 7.42147 7.8406 7.30535C7.91966 7.16329 8.04813 7.20776 8.16095 7.15588C8.28324 7.1287 8.3586 6.92035 8.42118 6.80671C8.48707 6.68935 8.38166 6.72065 8.32236 6.73382L7.50954 6.91541C7.34524 6.95247 7.13607 6.94588 7.03354 7.13076L6.60942 7.89541C6.44883 8.18447 6.70124 8.46159 6.86718 8.60571V8.60612ZM5.71671 8.93676L6.00824 8.44841C6.03707 8.40023 6.31748 8.01853 6.28495 7.95265C6.25242 7.88759 5.85671 8.02882 5.8073 8.03994C5.65701 8.07329 5.48365 8.06959 5.38977 8.23882C5.32595 8.35412 5.0653 8.67694 5.20571 8.79882C5.33954 8.91453 5.5693 9.18423 5.71671 8.93676ZM3.61218 10.1255C3.70936 10.2099 3.78801 10.2062 3.89754 10.1819C4.04165 10.149 4.18577 10.1173 4.32948 10.0852C4.43036 10.0625 4.57818 9.99623 4.67207 10.0778C4.8656 10.2454 4.98995 10.4031 5.23083 10.3491L5.6286 10.2602C5.75748 10.2314 5.80771 10.1103 5.87648 9.98676C5.97365 9.81094 5.51495 9.53135 5.39801 9.5577C5.22218 9.59682 4.83513 9.78665 4.67124 9.645C4.58642 9.57088 4.49789 9.46712 4.40442 9.41359C4.31218 9.33412 4.17301 9.39629 4.07418 9.41853L3.69248 9.50376C3.56648 9.53176 3.50677 9.69523 3.44048 9.81465C3.35648 9.96535 3.5286 10.0535 3.61218 10.1255ZM6.28742 8.91082C6.30183 8.95035 6.46571 9.092 6.49742 9.03435C6.52954 9.01623 6.64236 8.81323 6.59583 8.77288C6.56289 8.74406 6.42413 8.57935 6.38542 8.64935C6.35371 8.66706 6.24089 8.87047 6.28742 8.91082ZM6.04324 9.09076C6.00495 9.10929 5.83324 9.42347 5.88183 9.46547C5.92301 9.50129 6.14165 9.74382 6.18365 9.66847C6.22195 9.64953 6.39365 9.33576 6.34465 9.29335C6.32942 9.24518 6.07701 9.02982 6.04324 9.09076ZM8.02795 9.85665C8.16466 9.93488 8.21242 10.0683 8.23795 10.2396C8.25895 10.3866 8.24948 10.5645 8.35407 10.6551C8.44877 10.7572 8.56571 10.8383 8.66866 10.9268C8.87577 11.1064 9.13395 11.3464 9.38389 11.0944C9.58154 10.8955 9.42795 10.5715 9.27148 10.4356C9.19324 10.3676 9.15413 10.2161 9.16442 10.0975C9.17266 9.9987 9.34148 9.80188 9.24677 9.71994C9.04418 9.54412 8.84118 9.36829 8.63777 9.19288C8.5023 9.07553 8.23836 8.7387 8.05224 8.78029L7.26083 8.95694C7.12907 8.98576 6.77907 9.4947 6.92401 9.61988L7.23695 9.89041C7.34401 9.98347 7.51942 9.90112 7.63389 9.87518C7.74383 9.85047 7.92377 9.76729 8.02754 9.85665H8.02795ZM8.67566 7.88718C8.79177 7.93576 8.95566 7.85876 9.06971 7.83365C9.36001 7.76859 9.5346 7.70106 9.79154 7.92341C9.98013 8.08647 10.2251 8.23512 10.3857 8.43812C10.4817 8.52088 10.4837 8.72388 10.5022 8.85153C10.5294 9.03682 10.5558 9.22088 10.5838 9.40576C10.6081 9.57376 10.7279 9.59806 10.8135 9.70223C10.928 9.80106 10.9264 10.0905 10.9486 10.2416C10.9914 10.5352 11.3447 10.7205 11.5251 10.8766C11.6519 10.9861 11.8545 11.0059 11.9834 10.8766C12.1563 10.702 12.0999 10.4689 12.0657 10.2359C12.0369 10.0366 12.1246 9.92376 12.2098 9.76976L12.5413 9.17353C12.6319 9.00882 12.7925 9.01129 12.9391 8.97876C13.1326 8.93512 13.2108 8.88406 13.3241 8.68065C13.4311 8.48753 13.4797 8.38253 13.4451 8.14659C13.4204 7.97818 13.313 7.6327 13.4019 7.47294C13.4752 7.34035 13.5353 7.21765 13.4867 7.05006C13.4698 6.936 13.3986 6.91623 13.3451 6.84459C13.266 6.77665 13.2611 6.65106 13.2454 6.54523C13.1981 6.22406 13.5736 6.01159 13.5987 5.70812C13.6123 5.54506 13.5555 5.45282 13.4311 5.48041L12.9555 5.58665C12.8633 5.60723 12.7579 5.65129 12.664 5.6517C12.5269 5.68259 12.3593 5.47753 12.2601 5.38488C12.1069 5.24159 11.7524 5.38488 11.5489 5.43018C11.369 5.47012 10.9148 5.54465 10.8448 5.67312C10.704 5.92965 10.6225 6.16312 10.3668 6.22076L9.50166 6.41429C9.2863 6.46206 9.14177 6.89029 9.02813 7.0937C8.95524 7.22629 8.8663 7.24729 8.74483 7.27488C8.58424 7.31029 8.5266 7.39841 8.43601 7.55982C8.36601 7.68623 8.5933 7.853 8.67566 7.88718ZM15.3549 10.7864C15.3911 10.8564 15.3635 10.9643 15.4249 11.0174C15.5307 11.1092 15.6102 11.2439 15.5863 11.4242C15.5772 11.4942 15.3219 11.8142 15.4714 11.8792C15.5291 11.9039 15.5731 11.6808 15.632 11.668C15.7102 11.619 15.8231 11.6589 15.8997 11.598C16.0586 11.4704 16.0549 11.2151 15.9083 11.0932L15.6374 10.8679C15.5015 10.7547 15.6662 10.6872 15.6489 10.5735C15.6308 10.4492 15.4834 10.5151 15.4294 10.4685C15.3677 10.4315 15.4039 10.1865 15.3121 10.2174C15.2907 10.2239 15.2248 10.3466 15.219 10.3668C15.1885 10.422 15.2075 10.5686 15.2289 10.6238C15.2668 10.6971 15.3211 10.7214 15.3549 10.7864ZM17.1201 13.4394C17.1502 13.4217 17.2395 13.257 17.1955 13.2191C17.165 13.1932 17.0555 13.0594 17.0184 13.1248C16.9888 13.1425 16.8998 13.3072 16.9435 13.3447C16.9575 13.3822 17.0901 13.4938 17.1205 13.4394H17.1201ZM29.1815 11.5058C29.2408 11.3987 29.434 11.3711 29.5217 11.3464C29.679 11.3052 29.7481 11.1208 29.7749 11.0376C29.8136 10.9182 29.807 10.7984 29.7893 10.6822C29.7761 10.5916 29.7403 10.4101 29.6563 10.2878C29.6369 10.2565 29.5163 10.1033 29.4525 10.1432C29.3648 10.1968 29.5295 10.6114 29.5184 10.8156C29.5114 10.961 29.338 11.0442 29.2528 11.0792C29.1498 11.1224 29.0634 11.1698 29.0098 11.2715C28.9612 11.3629 28.6462 11.9048 28.6796 11.9814C28.7125 12.0551 28.8525 11.9925 28.8958 11.9665C28.9617 11.9266 29.0172 11.8183 29.0555 11.7491C29.1227 11.6285 29.1148 11.6264 29.1815 11.5058ZM29.7823 10.0296C29.8161 10.0106 29.9524 9.81671 29.9017 9.73065C29.8733 9.68288 29.7584 9.54988 29.6724 9.59106C29.6394 9.60959 29.5217 9.79859 29.5534 9.89C29.5698 9.93118 29.707 10.0568 29.7823 10.03V10.0296ZM26.9856 16.9476C26.9741 16.869 26.9753 16.7088 26.9156 16.6561L26.4738 16.2649C26.4342 16.2308 26.0949 15.8787 26.0455 15.8993C25.9784 15.9277 26.0319 16.2789 26.1588 16.3934C26.3194 16.5384 26.4902 16.6714 26.6554 16.8105C26.8028 16.9336 26.7328 17.0946 26.8044 17.2717C26.8168 17.3549 27.1783 17.6843 27.2141 17.6559C27.2598 17.6188 27.1618 17.2071 27.1104 17.1626C27.035 17.0979 27.0017 17.0596 26.9852 16.9476H26.9856ZM24.5031 16.2254C24.4808 16.2386 24.4145 16.3642 24.4232 16.4334C24.4294 16.4848 24.4952 16.5474 24.5562 16.533C24.6233 16.5071 24.655 16.4272 24.6105 16.3506C24.5957 16.323 24.5405 16.1995 24.5035 16.2254H24.5031ZM28.3193 13.4711C28.3069 13.4382 28.2353 13.4423 28.1888 13.4942C28.1402 13.5635 28.1129 13.6455 28.1101 13.7301C28.1101 13.7898 28.1735 13.8705 28.2411 13.8623C28.3337 13.8376 28.358 13.5646 28.3193 13.4711ZM22.2618 20.2265C22.2058 20.2117 21.9592 20.7186 21.9456 20.8001C21.9275 20.9096 21.9975 21.0245 21.9785 21.1341C21.9608 21.2374 21.8727 21.3428 21.8254 21.4276C21.7747 21.5182 21.8447 21.6195 21.8558 21.8234C21.8628 21.9531 21.9777 22.0235 22.0671 22.0791C22.2375 22.1841 22.4722 21.9218 22.4937 21.6978C22.5089 21.4746 22.4175 21.1773 22.3854 20.9578C22.3742 20.8858 22.331 20.2446 22.2618 20.2265ZM28.7529 17.5884C28.8278 17.5439 28.974 17.3191 28.9505 17.2087C28.9357 17.1428 28.7216 16.9122 28.6195 16.9637C28.5289 17.0226 28.4054 17.254 28.4222 17.3434C28.4408 17.4414 28.6866 17.6275 28.7529 17.5884ZM29.6489 16.9868C29.7469 16.9971 29.8733 16.9365 29.9705 16.9151C30.136 16.8781 30.1891 17.1445 30.2097 17.2828C30.2394 17.4842 30.2472 17.6851 30.4312 17.7638C30.5877 17.828 30.7483 17.6917 30.815 17.5702C30.8562 17.4974 30.9455 17.4245 31.0184 17.4875C31.0497 17.5015 31.1667 17.6551 31.1975 17.6299C31.2268 17.6065 31.1621 17.3335 31.1555 17.2911C31.1411 17.1918 31.0225 17.1264 30.9637 17.0757C30.892 17.0135 30.7973 16.8916 30.7088 16.8674C30.6198 16.8426 30.5128 16.9526 30.4308 16.8785C30.2892 16.75 30.1537 16.5486 29.9705 16.5894C29.8984 16.6055 29.3532 16.6611 29.3388 16.75C29.3285 16.8151 29.595 16.9987 29.6489 16.9868ZM31.7917 22.4612C31.7588 22.4801 31.6291 22.707 31.6727 22.7605C31.7015 22.7955 31.8399 22.9368 31.9017 22.8997C31.9354 22.8812 32.0552 22.6732 32.0211 22.6008C32.0046 22.5596 31.851 22.4274 31.7917 22.4608V22.4612ZM34.203 21.4985C34.1865 21.4573 34.04 21.3173 33.9737 21.3585C33.9403 21.3778 33.8213 21.5973 33.8542 21.6578C33.8818 21.7068 34.0144 21.839 34.084 21.7978C34.131 21.7781 34.2331 21.5833 34.203 21.4985ZM33.6521 22.0062C33.6088 22.0597 33.5845 22.1305 33.5203 22.2244C33.4783 22.2849 33.1357 22.7931 33.2074 22.8725C33.2543 22.9248 33.3968 23.0829 33.4363 23.0125C33.4795 22.9405 33.5417 22.8215 33.5693 22.7729C33.6887 22.5579 33.9308 22.2421 33.8822 22.1244C33.8666 22.0832 33.7077 21.9316 33.6517 22.0062H33.6521ZM9.9896 18.6602C9.9583 18.6713 9.86854 18.7376 9.88666 18.7821C9.89407 18.8117 9.99907 18.8895 10.0514 18.8792C10.0773 18.8735 10.1728 18.7994 10.1543 18.7569C10.1465 18.7364 10.0279 18.6462 9.9896 18.6602ZM9.17924 18.0215C9.13066 17.9935 8.98489 18.0907 9.05571 18.1504C9.2196 18.2731 9.29042 18.3411 9.32418 18.3703C9.51854 18.5362 9.60871 18.6371 9.67007 18.6149C9.70836 18.5951 9.82324 18.5025 9.74871 18.4333C9.69971 18.3905 9.67748 18.3756 9.61283 18.3304C9.40818 18.1899 9.31513 18.0998 9.17924 18.0215ZM28.664 15.4929C28.7216 15.5431 28.8797 15.2549 28.883 15.2001C28.8995 15.0988 28.7241 14.9316 28.6607 14.9374C28.5849 14.9444 28.4449 15.1754 28.442 15.2306C28.4297 15.3459 28.6207 15.4875 28.664 15.4929ZM28.3601 14.8645C28.3979 14.8975 28.5009 14.7093 28.5029 14.6735C28.5137 14.6076 28.3992 14.4985 28.358 14.5022C28.3086 14.5063 28.2168 14.6574 28.2147 14.6932C28.2073 14.769 28.3317 14.8612 28.3601 14.8645ZM28.4132 18.2216C28.2538 18.0726 28.083 17.9359 27.9182 17.793C27.8861 17.7654 27.7754 17.6489 27.7342 17.6859C27.7 17.7168 27.5818 17.9136 27.6312 17.9565C27.6794 18.0133 27.7605 18.0685 27.7935 18.0973L28.1262 18.3847C28.1583 18.4127 28.2431 18.4955 28.2917 18.486C28.3403 18.4765 28.4737 18.2785 28.4132 18.2216ZM27.6691 17.1614C27.8174 17.128 27.9615 17.1387 28.0517 16.9773C28.1167 16.8599 28.3061 16.6351 28.2822 16.4778C28.2505 16.2596 28.216 16.0409 28.1863 15.8219C28.1719 15.7128 28.0335 15.3389 27.9252 15.4711C27.9125 15.4971 27.9071 15.5262 27.9096 15.5551C27.9178 15.7399 27.9631 15.8359 27.8775 15.9907C27.8141 16.1056 27.7012 16.4305 27.5769 16.4581C27.5201 16.4704 27.3887 16.4663 27.3434 16.5104C27.2866 16.5618 27.3064 16.6294 27.3171 16.701C27.3475 16.9085 27.4509 17.2104 27.6695 17.1614" fill="#003e75"/>
<path fill-rule="evenodd" clip-rule="evenodd" d="M15.0437 11.7616C15.1503 11.7377 15.3356 11.5825 15.3105 11.4133C15.294 11.3004 15.308 11.0666 15.1845 11.0941C15.1092 11.1116 15.0415 11.1529 14.9915 11.2119C14.9415 11.2708 14.9119 11.3443 14.907 11.4215C14.8996 11.545 14.9234 11.788 15.0437 11.7616ZM17.014 10.5074C17.0181 10.4884 17.0383 10.4522 17.0086 10.4477C16.9827 10.444 16.9415 10.4485 16.9234 10.4798C16.9131 10.4987 16.9011 10.5391 16.9296 10.5436C16.9543 10.5473 17.0074 10.5362 17.014 10.5074ZM32.008 19.9524C31.9833 19.7898 31.7827 19.6848 31.6847 19.6C31.5608 19.4929 31.3265 19.3673 31.2429 19.2051C31.1988 19.1215 31.2009 18.9774 31.1869 18.8819C31.1729 18.7851 31.0691 18.7295 31.0111 18.6793C30.9361 18.6146 30.9716 18.4565 30.937 18.3676C30.9296 18.312 30.7558 18.1205 30.7121 18.1551C30.6656 18.1926 30.755 18.5574 30.7624 18.608C30.7821 18.7447 30.8373 18.914 30.7389 19.0247C30.6339 19.2141 30.1818 18.8279 30.1591 18.6719C30.1423 18.5566 30.0517 18.34 29.9277 18.3671C29.7886 18.3548 29.7227 18.5524 29.6576 18.6694C29.5728 18.8226 29.5625 18.8728 29.4303 18.7583C29.2957 18.6422 29.2491 18.8469 29.1746 18.9807C29.1021 19.112 29.1433 19.2319 29.1651 19.3817C29.1894 19.5481 29.0976 19.6519 29.0243 19.7836C28.8917 20.0229 28.5549 19.833 28.4281 20.0628C28.3651 20.176 28.2741 20.2806 28.2951 20.4251C28.3165 20.5705 28.3144 20.7875 28.3676 20.9193C28.3873 21.0539 28.5549 21.0556 28.5759 21.1976L28.6583 21.7634C28.6817 21.9186 28.7027 21.9693 28.809 22.0615C28.9551 22.1875 28.9387 21.9894 29.0383 21.889C29.1067 21.7659 29.2944 21.8709 29.3628 21.7477C29.4472 21.6621 29.4575 21.4776 29.5798 21.4504C29.6877 21.4266 29.8297 21.3586 29.9393 21.3701C30.0504 21.3454 30.1513 21.5542 30.2468 21.595C30.3535 21.6872 30.4803 21.5497 30.5351 21.4509C30.6228 21.2931 30.6561 21.1112 30.8068 21.2417C31.0041 21.4117 30.8398 21.8902 31.021 22.0471C31.0943 22.1105 31.2281 22.2859 31.3257 22.2637L31.7494 22.169C31.8334 22.15 31.9326 21.9754 31.9594 21.8811C32.0191 21.7733 31.9293 21.4875 31.9124 21.3734C31.8713 21.0943 32.1562 20.9625 32.1167 20.694L32.008 19.9529V19.9524ZM13.7969 20.6994C13.745 20.624 13.6577 20.5697 13.5943 20.5153C13.3196 20.2765 13.0417 20.0385 12.767 19.8001C12.5739 19.6309 12.4837 19.5827 12.2482 19.637C11.9793 19.6971 11.7109 19.7577 11.442 19.8153C11.1949 19.8726 11.0496 19.3986 10.7873 19.4559C10.4974 19.5193 10.2075 19.5856 9.91844 19.649C9.88468 19.658 9.84844 19.6613 9.81838 19.6819C9.76073 19.7186 9.67015 19.9648 9.60056 19.959C9.53138 19.9529 9.43009 19.8586 9.37615 19.8137C9.10438 19.5843 8.85485 19.3801 8.5835 19.154C8.52009 19.0964 8.46409 19.0671 8.40068 18.9729C8.33562 18.8773 8.35126 18.4355 8.22485 18.4623C8.0165 18.5113 7.59403 18.692 7.5335 18.2848C7.4882 17.9801 7.34656 17.5601 7.57879 17.325C7.66321 17.2406 7.81103 17.2406 7.91068 17.2163C8.05891 17.1862 8.20344 17.1529 8.34879 17.1199C8.52626 17.0804 8.89232 17.6692 8.97303 17.2558C8.99979 17.0878 8.76179 16.9536 8.70168 16.9025C8.56868 16.7872 8.55632 16.6579 8.52626 16.4677C8.48426 16.163 8.78279 15.9213 8.87668 15.668C8.96726 15.5021 8.83426 15.3057 8.87997 15.1307C8.91291 15.01 9.0035 14.8919 9.06115 14.7897C9.15173 14.6267 9.2415 14.4603 9.33538 14.2948C9.3955 14.189 9.48032 14.0774 9.45932 13.9353C9.43503 13.7574 9.40497 13.6306 9.49226 13.4737C9.57668 13.3226 9.63144 13.2172 9.78503 13.181C10.0654 13.1204 10.3195 13.078 10.422 12.6889C10.4521 12.5711 10.4191 12.3537 10.3829 12.2421C10.3615 12.1005 10.217 12.0128 10.1326 11.9403C9.99915 11.8259 9.86985 11.7139 9.73726 11.5994C9.65532 11.5269 9.55856 11.412 9.44697 11.4363L8.71403 11.5994C8.58968 11.6266 8.51432 11.8287 8.45132 11.9465C8.36938 12.0914 8.39697 12.2088 8.42085 12.3719L8.49332 12.873C8.50815 12.9755 8.38215 13.3407 8.26356 13.2444C8.2125 13.2291 8.14909 13.1476 8.1042 13.1114C7.97049 12.9993 7.83556 12.8887 7.69944 12.7795L6.98421 12.1907C6.82403 12.061 6.78244 11.6504 6.88785 11.4606C7.02044 11.2251 7.2955 10.9047 7.25021 10.5971C7.2255 10.4489 7.2255 10.2591 7.11679 10.1627C6.99615 10.0569 6.87262 9.95109 6.75197 9.84568C6.59797 9.71268 6.66138 9.98444 6.6795 10.0927C6.70338 10.2624 6.6342 10.516 6.47773 10.5519C6.2595 10.6515 5.98485 10.6606 5.75838 10.712C5.60768 10.745 5.45697 10.7779 5.30585 10.8117C5.22144 10.8298 5.11644 10.8751 5.02832 10.8389C4.81997 10.7511 4.66021 10.3859 4.42138 10.4403C4.12903 10.5037 3.83668 10.57 3.54597 10.6334C3.47103 10.6515 3.38044 10.654 3.30756 10.6877C3.14203 10.724 3.12391 11.0077 2.98226 11.0954C2.67756 11.2856 2.47168 11.0682 2.23038 10.8599C2.03438 10.6906 1.85609 10.7845 1.63332 10.8327C1.60862 10.8389 1.58679 10.8442 1.5625 10.8471L2.13897 12.7877C2.25097 12.7606 2.36297 12.7371 2.47497 12.7128C2.66521 12.6708 2.80068 12.8487 2.9485 12.9788C3.22806 13.2181 3.50683 13.4583 3.78479 13.6994C3.90544 13.8023 4.14426 13.9353 4.17103 14.1375C4.27397 14.8375 4.37938 15.5412 4.48191 16.2445C4.51197 16.4529 4.51815 16.7057 4.57826 16.9054C4.61162 17.129 4.97685 17.3311 5.10409 17.4427C5.3635 17.6659 5.62003 17.8895 5.87656 18.1127C5.93668 18.1641 6.02109 18.2667 6.0845 18.1518C6.1722 17.9949 6.16315 17.9315 6.04538 17.8261C5.80697 17.6202 5.56856 17.4156 5.32973 17.2072C5.24326 17.1319 5.32973 16.8873 5.42979 16.8663C5.49609 16.851 5.59862 16.9774 5.6472 17.0203L6.45303 17.7174C6.62515 17.8652 6.80303 17.9587 6.84215 18.2304C6.89073 18.5566 6.87838 18.8913 7.11103 19.0906L7.45197 19.3867C7.56026 19.4802 7.70562 19.4134 7.82297 19.3867C7.91068 19.3686 8.16803 19.2837 8.25244 19.3443C8.32821 19.3929 8.3945 19.462 8.46409 19.5226C8.73585 19.7548 8.9335 19.9314 9.20526 20.167C9.28968 20.239 9.36997 20.307 9.45438 20.3799C9.56597 20.4762 9.42309 20.6928 9.37203 20.7871C9.3082 20.9016 9.16944 21.077 9.19085 21.2306C9.19085 21.3426 9.22668 21.4661 9.2415 21.5748C9.29297 21.9339 9.34732 22.2962 9.40209 22.6553C9.43503 22.8999 9.78832 23.093 9.93326 23.2194C10.0716 23.3376 10.3977 23.5154 10.4315 23.7481L10.5484 24.5539C10.6481 25.2329 10.7481 25.9119 10.8474 26.5913C10.8688 26.7363 10.7782 26.8536 10.7148 26.9619C10.6481 27.0863 10.6456 27.1826 10.6662 27.3218C10.7239 27.699 10.7782 28.0761 10.8326 28.4533C10.8779 28.7494 11.1496 28.8882 11.3308 29.045C11.4152 29.1204 11.5297 29.2563 11.6417 29.2324C11.7018 29.2324 11.7743 29.2019 11.8344 29.19C11.9188 29.1686 12.1424 29.1719 12.2058 29.0903C12.254 29.0298 11.9587 28.8128 11.9311 28.7885C11.8315 28.7008 11.7261 28.6345 11.7018 28.4714C11.6689 28.2483 11.5177 27.7714 11.6322 27.5631C11.9402 27.0072 12.2511 26.4522 12.5587 25.8938C12.7007 25.6373 12.4533 25.3144 12.5863 25.076C12.7403 24.8014 12.891 24.5267 13.045 24.2521C13.1174 24.1224 13.2319 24.1191 13.3468 24.0915C13.5037 24.0586 13.5943 24.0347 13.6877 23.8687C13.7511 23.7534 13.8566 23.6242 13.8327 23.473C13.8113 23.3194 13.7874 23.1683 13.7668 23.0176C13.7388 22.8241 13.7091 22.6306 13.682 22.4379C13.6639 22.3172 13.6243 22.1751 13.6849 22.0632C13.7602 21.931 13.8331 21.8013 13.9051 21.6679C13.9772 21.5386 13.9175 21.3393 13.8961 21.2005C13.8747 21.0523 13.8747 20.8233 13.7964 20.6994H13.7969ZM13.9204 9.18521C13.8487 9.20168 13.691 9.19674 13.6441 9.28156C13.586 9.34085 13.542 9.46562 13.4996 9.54221C13.4403 9.64844 13.43 9.67562 13.5197 9.75344C13.6268 9.84609 13.9076 9.92021 14.0027 9.7485C14.0789 9.61262 14.2617 9.42856 14.1197 9.30544C14.0637 9.25727 13.9949 9.16832 13.9204 9.18521ZM19.2799 13.524C19.317 13.4807 19.3203 13.4676 19.3166 13.4527C19.3133 13.4379 19.2951 13.4449 19.277 13.456C19.2519 13.4717 19.2236 13.4815 19.1943 13.4849C19.1724 13.4849 19.1469 13.5001 19.1432 13.5178C19.1411 13.5277 19.1407 13.5701 19.1729 13.573C19.2354 13.5787 19.263 13.5441 19.2799 13.524Z" fill="#003e75"/>
<path fill-rule="evenodd" clip-rule="evenodd" d="M26.4674 15.1193C26.5984 15.2765 26.5333 15.4849 26.5024 15.6578C26.4814 15.7731 26.5214 15.9049 26.5642 15.9642C26.5955 16.0013 26.6272 16.028 26.6482 16.0465L26.8072 16.1832C26.8277 16.2014 26.8813 16.2475 26.9134 16.2483C27.0274 16.2516 27.055 16.1227 26.9908 16.0795C26.888 16.0056 26.7924 15.9224 26.705 15.8308C26.642 15.7595 26.635 15.4083 26.6968 15.3737C26.7108 15.3681 26.726 15.3664 26.7409 15.3688C26.7558 15.3712 26.7697 15.3776 26.7812 15.3873C26.8747 15.4688 26.9562 15.5743 27.0406 15.4174C27.1189 15.2786 27.0324 14.9163 26.9027 14.8047C26.8302 14.7141 26.6186 14.6482 26.7124 14.4818C26.782 14.3583 26.8603 14.1318 26.9924 14.1014C27.2189 14.0503 27.4549 14.0623 27.5936 13.8148C27.7624 13.5039 27.9346 13.1959 28.1067 12.8883C28.2067 12.7071 28.2006 12.218 28.0375 12.0792L27.3766 11.5089C27.2346 11.3854 27.6299 10.727 27.7324 10.8147C27.823 10.8447 27.9342 10.9897 28.0103 11.056C28.0762 11.1136 28.2487 11.3306 28.3455 11.3096C28.4328 11.2915 28.5716 10.9987 28.4814 10.9234C28.3661 10.8237 28.2426 10.7603 28.3426 10.5791C28.4085 10.4614 28.4719 10.2983 28.5563 10.1962C28.6502 10.0298 28.8495 10.1324 28.9463 9.95737C29.0546 9.76137 29.3292 9.43525 29.2897 9.17254C29.2629 8.99754 29.2386 8.82254 29.2114 8.64754C29.1933 8.51166 29.1904 8.27943 29.0908 8.19172C28.9973 8.08054 28.852 8.04678 28.8256 7.8656C28.7923 7.65148 28.8256 7.55472 28.922 7.37972C28.985 7.26854 29.0574 7.06307 29.1814 7.0359C29.302 7.00872 29.4231 6.98443 29.5437 6.95766C29.7669 6.90578 30.1293 6.92101 30.2709 6.66448C30.3586 6.51049 30.4192 6.43801 30.5699 6.40507C30.7482 6.36554 30.7869 6.38366 30.8202 6.60725C30.8445 6.76701 30.8717 6.89137 30.793 7.0359C30.7239 7.15943 30.5637 7.35584 30.588 7.52178C30.588 7.80837 30.6786 8.13119 30.7206 8.41201C30.7358 8.5236 30.9141 8.74678 30.9952 8.59937C31.0829 8.44537 31.1673 8.28849 31.2546 8.13449C31.3123 8.02578 31.43 7.88084 31.409 7.7359C31.4057 7.61237 31.3695 7.47319 31.3514 7.35296C31.3213 7.15325 31.2937 6.95766 31.2637 6.76125C31.2456 6.63113 31.2036 6.48949 31.2699 6.37172C31.3514 6.22678 31.409 6.14525 31.5507 6.11231C31.6112 6.09996 31.6936 6.09378 31.7689 6.07278L31.5466 4.93507L30.1849 4.45084C30.1513 4.44603 30.1171 4.44743 30.084 4.45496L29.3506 4.61801L28.3332 4.84449C28.1705 4.88072 27.986 4.95896 27.8201 4.95896C27.573 5.0166 27.419 4.52454 27.1592 4.58178C26.8751 4.64519 26.5918 4.71149 26.3077 4.77531C26.124 4.81443 25.8704 4.94413 25.7016 4.80207C25.5809 4.69954 25.457 4.59701 25.3363 4.49407C25.2453 4.41872 25.116 4.26184 24.9946 4.28901C24.7566 4.29231 23.7181 4.48254 23.6127 4.67237C23.3228 5.19449 23.0329 5.7166 22.7434 6.23584C22.6319 6.4409 22.1999 6.43184 22.0282 6.47137C21.9162 6.49525 21.8046 6.51954 21.693 6.54672C21.572 6.5739 21.5119 6.73366 21.4513 6.84854C21.385 6.96631 21.3249 7.12031 21.243 7.22325C21.1767 7.3406 21.014 7.34349 20.9115 7.36449L20.4252 7.47319C20.3223 7.4979 20.1625 7.4979 20.0958 7.61813C19.906 7.84749 19.894 8.13119 19.6075 8.19749C19.4625 8.22796 19.3176 8.2609 19.1726 8.29425C19.0306 8.32472 18.9313 8.20078 18.8197 8.10731C18.7716 8.0649 18.6715 8.00149 18.723 7.90472C18.735 7.86892 18.7552 7.83638 18.7819 7.80967C18.8086 7.78295 18.8412 7.76278 18.877 7.75072C18.9161 7.73301 19.1277 7.7359 19.0664 7.62431C19.0281 7.55843 18.9462 7.50943 18.8951 7.46784C18.7922 7.37972 18.6958 7.26196 18.5632 7.29243C18.4393 7.3196 18.2247 7.42213 18.1136 7.32249C18.0016 7.25907 17.9443 7.12607 17.8056 7.15654C17.6549 7.18949 17.5066 7.22572 17.3559 7.25949C17.1418 7.30725 17.0689 7.5156 16.954 7.72684C16.7642 8.0649 16.5769 8.40296 16.3899 8.74101C16.2569 8.98231 16.1877 9.09431 16.2302 9.39284L16.3022 9.87872C16.3175 9.99031 16.5015 10.2081 16.6012 10.1838C16.6526 10.1764 16.7008 10.1476 16.749 10.1509C16.8425 10.1674 16.8705 10.2378 16.9631 10.2415C17.0722 10.244 17.2711 10.1929 17.3374 10.078C17.4132 9.93637 17.4675 9.8396 17.4403 9.66749C17.4189 9.51101 17.2534 9.34013 17.2534 9.18325C17.2287 9.02307 17.374 8.8456 17.437 8.73031C17.519 8.58249 17.7088 8.3939 17.8752 8.4149C18.0905 8.44249 18.1692 8.5726 18.0687 8.76654C17.953 8.99096 17.6281 9.01196 17.6302 9.46943C17.631 9.68478 17.8093 9.6819 17.9501 9.67366C18.1395 9.66213 18.1638 9.75272 18.137 9.96437C18.1284 10.0327 18.079 10.1167 18.0189 10.1954C17.9275 10.3053 17.7788 10.2555 17.668 10.3457C17.5845 10.4288 17.6668 10.5021 17.5359 10.5907C17.4708 10.6347 17.395 10.6467 17.3465 10.6578C17.2657 10.6759 17.1393 10.6907 17.0067 10.7146C16.9804 10.7173 16.9537 10.7138 16.9289 10.7045C16.9041 10.6951 16.8819 10.6801 16.8639 10.6607C16.8507 10.6454 16.8511 10.6318 16.8573 10.617C16.8673 10.5935 16.8743 10.5687 16.8779 10.5433C16.8935 10.4346 16.7477 10.3111 16.7016 10.3543C16.6716 10.3831 16.6012 10.4972 16.6357 10.5573C16.6707 10.6178 16.7403 10.6697 16.7601 10.7232C16.7683 10.7459 16.7585 10.7747 16.7272 10.7867C16.6045 10.8328 16.5336 10.8731 16.4834 10.9637C16.3051 11.2808 16.4517 11.532 16.1787 11.8832C16.1252 11.9515 16.1079 12.0409 16.0457 12.1245C15.9613 12.2756 16.0663 12.4745 16.0663 12.6351C16.1396 13.1296 15.5631 12.8821 15.4392 13.1053C15.3457 13.2021 15.3515 13.3227 15.3729 13.4553C15.3819 13.5311 15.3967 13.9021 15.4544 13.9383C15.5569 14.0083 15.6084 14.1047 15.729 14.0775C15.8497 14.0503 16.0214 14.0594 16.0943 13.9264C16.1272 13.8691 16.182 13.7995 16.1939 13.7271C16.2087 13.6398 16.1515 13.5554 16.1968 13.4705C16.275 13.3318 16.3533 13.1897 16.4323 13.0481C16.5196 12.8883 16.6736 12.9604 16.7823 12.8488C16.8791 12.752 16.9001 12.5379 17.0508 12.6676C17.1743 12.7734 17.2979 12.8821 17.4222 12.9875C17.4494 13.009 17.5066 13.0963 17.5758 13.2955C17.5972 13.3544 17.5692 13.5508 17.6273 13.5644C17.6837 13.5768 17.745 13.3651 17.7603 13.338C17.8023 13.2626 17.7693 13.1086 17.7961 13.0691C17.8142 13.0452 17.9052 13.0633 17.89 12.9694C17.8871 12.9455 17.7813 12.8583 17.7813 12.855C17.7813 12.8521 17.5009 12.6104 17.4856 12.5984C17.4132 12.535 17.1986 12.4201 17.2797 12.2756C17.3889 12.0792 17.4585 12.1698 17.5882 12.2814C17.7059 12.3843 17.8237 12.4835 17.9382 12.5865C18.0526 12.6857 18.102 12.8517 18.0802 13.009C18.0617 13.1436 18.2725 13.4323 18.3767 13.3557C18.4879 13.289 18.361 12.9756 18.4788 12.8793C18.557 12.8187 18.7292 12.7615 18.702 12.5869C18.6929 12.5375 18.6715 12.4597 18.6839 12.3962C18.6929 12.3328 18.744 12.2694 18.7716 12.218C18.8165 12.1397 18.9132 11.868 18.9857 11.8317C19.075 11.7905 19.2451 12.0376 19.3447 11.8564C19.3896 11.7823 19.4353 11.63 19.5832 11.5962C19.7372 11.5633 19.7849 11.6176 19.9122 11.7259C20.0027 11.8045 20.1263 11.868 20.1477 12.0129C20.1658 12.1455 20.202 12.4172 20.039 12.4535C19.9393 12.514 19.7825 12.5111 19.6709 12.535C19.5469 12.5622 19.4868 12.36 19.3662 12.3872C19.2665 12.4082 19.1347 12.3954 19.0944 12.5169C19.0108 12.7681 18.8803 12.7998 18.793 12.9567C18.7444 13.0472 18.7106 13.3124 18.7831 13.373C18.9128 13.4845 19.1096 13.3923 19.2566 13.359C19.6075 13.2807 19.7734 13.718 19.7252 13.9931C19.6939 14.1701 19.1516 14.2677 19.0367 14.2195C18.9042 14.1648 18.8531 14.0413 18.6991 14.0775C18.578 14.1047 18.3787 14.1014 18.3005 14.2434C18.2342 14.3612 18.1646 14.5514 18.0407 14.5786C17.9233 14.6054 17.7179 14.7021 17.6092 14.6054C17.5033 14.5453 17.4041 14.4275 17.3073 14.346C17.1715 14.2282 17.2349 14.0017 17.0994 13.884C16.9903 13.7905 16.8639 13.8481 16.7461 13.8757C16.6255 13.8992 16.4385 13.8992 16.3417 13.9993C16.2421 14.0956 16.212 14.2735 16.1153 14.3702C16.0123 14.4732 15.8221 14.4695 15.699 14.4971C15.4964 14.5424 15.2885 15.004 15.3214 15.2395C15.3757 15.5985 15.204 15.7917 15.0467 16.0754C14.9352 16.2747 14.6877 16.5703 14.7268 16.833C14.775 17.1682 14.8236 17.5001 14.875 17.8353C14.908 18.0704 15.267 18.2697 15.4062 18.3903C15.5355 18.5023 15.6627 18.6106 15.7892 18.7222C15.8711 18.7922 15.9642 18.9034 16.07 18.8828C16.2689 18.8828 16.6226 18.819 16.7432 18.6048C16.8215 18.4599 16.8758 18.3393 17.0232 18.3059C17.1537 18.2787 17.3164 18.2001 17.4346 18.303C17.6335 18.4809 17.7936 18.5777 17.8356 18.8824L18.0077 20.0477C18.0349 20.2346 18.0349 20.7271 18.1827 20.8535C18.261 20.9527 18.3845 20.9951 18.4574 21.1038C18.515 21.1915 18.5175 21.3274 18.5327 21.4333C18.5904 21.8285 18.6509 22.2267 18.7077 22.622C18.753 22.921 18.7897 23.0325 18.9947 23.2108C19.1697 23.3615 19.3962 23.6638 19.6227 23.6119C19.906 23.5489 20.1901 23.4851 20.4734 23.4225C20.6875 23.3735 20.8267 22.9601 20.9416 22.7554C21.0046 22.6401 20.9745 22.5224 20.9564 22.3955L20.8658 21.7771C20.8205 21.4724 21.056 21.2006 21.1862 20.9618C21.243 20.863 21.3336 20.7448 21.3126 20.6089C21.2854 20.4339 21.2611 20.256 21.2343 20.0806C21.2129 19.939 21.2072 19.8121 21.1046 19.7215C20.9807 19.6157 20.872 19.5465 20.8419 19.3501C20.8205 19.2085 20.7695 19.0364 20.8419 18.9067L21.1046 18.4356C21.1705 18.315 21.2343 18.14 21.3612 18.1128C21.509 18.0798 21.5934 17.841 21.6692 17.7051C21.7474 17.561 21.8409 17.4428 21.8133 17.2588C21.8017 17.1921 21.7775 16.7305 21.7173 16.7124C21.6597 16.6971 21.509 17.0533 21.4818 17.1015C21.3945 17.2588 21.2706 17.2621 21.1318 17.2917C20.9082 17.3432 20.6068 16.9541 20.4372 16.8058C20.3589 16.7362 20.2502 16.67 20.2292 16.5374C20.2045 16.3653 20.1782 16.1931 20.1539 16.021C20.1143 15.7525 19.719 15.5413 19.556 15.4021C19.4567 15.3148 19.4473 15.1909 19.4292 15.0521C19.4053 14.9043 19.3233 14.6363 19.3991 14.4938C19.4749 14.3097 19.6227 14.3579 19.6915 14.53C19.7553 14.6811 19.7553 14.8981 19.7796 15.0612C19.8277 15.3906 20.1086 15.4384 20.2774 15.6529C20.4948 15.8398 20.3136 16.35 20.5368 16.5402C20.6307 16.6247 20.7361 16.7548 20.8481 16.8001C20.9506 16.8421 21.1619 16.7939 21.2586 16.7334C21.3402 16.6819 21.3883 16.5584 21.4365 16.4678C21.5353 16.2899 21.6358 16.1116 21.7355 15.9337C21.8742 15.683 22.0669 15.4565 21.9677 15.1308C21.9043 14.7079 21.4637 14.9797 21.2767 14.8199C21.1556 14.7135 21.0339 14.6078 20.9115 14.5028C20.8691 14.4637 20.7995 14.4094 20.8452 14.3278C20.86 14.2525 20.9564 14.1166 21.0223 14.1738C21.1199 14.201 21.2405 14.3612 21.3216 14.4332C21.4307 14.5271 21.6086 14.4423 21.7235 14.4184C21.8409 14.3912 21.9858 14.325 22.0916 14.4184C22.2209 14.53 22.3115 14.509 22.4569 14.4785L22.8579 14.3884C22.9847 14.3612 23.1206 14.53 23.217 14.6115C23.3076 14.6902 23.4225 14.7565 23.4434 14.9072C23.471 15.0945 23.4978 15.2848 23.525 15.4746C23.5456 15.5985 23.5493 15.7373 23.6432 15.8164C23.7663 15.9247 23.8873 16.0305 24.0109 16.1359C24.12 16.2294 24.1863 16.3047 24.2797 16.1388C24.3765 15.9605 24.3432 15.8221 24.3127 15.6228C24.2674 15.3181 24.542 14.9949 24.6722 14.7627C24.7257 14.663 24.7776 14.5271 24.8562 14.4485C24.9439 14.3579 25.2033 14.2978 25.2997 14.3851C25.4088 14.4456 25.5138 14.5695 25.611 14.654C25.6439 14.6811 25.6802 14.726 25.7197 14.7474C25.8202 14.8108 25.8704 14.7598 25.9544 14.7627C26.0816 14.7725 26.1804 14.8619 26.262 14.9348C26.3344 14.9965 26.4674 15.1193 26.4674 15.1193Z" fill="#003e75"/>
<path fill-rule="evenodd" clip-rule="evenodd" d="M40.918 12.7158H45.3263V26.3884H49.0388V12.7158H53.1017L54.2764 9.24089H40.918V12.7158ZM64.4721 12.7174L65.7359 9.24172H55.9177V26.3876H65.4386V22.9131H59.6071V19.3633H64.6677V15.9135H59.6071V12.7174H64.4721ZM76.1621 16.593C76.1059 16.6816 76.0506 16.7708 75.9962 16.8606C75.9734 16.8249 75.9511 16.7889 75.9291 16.7527L70.9286 9.24089H67.6625V26.3884H71.3507V16.3891L74.9623 21.8631H77.0581L80.4223 16.4418V26.3884H84.1117V9.24089H80.783L76.1621 16.593ZM95.5447 12.7174L96.806 9.24172H86.9895V26.3876H96.5087V22.9131H90.6781V19.3633H95.7395V15.9135H90.6781V12.7174H95.5447ZM109.743 19.512L109.565 19.2731L102.066 9.24089H98.7347V26.3884H102.422V15.9032C102.458 15.9506 102.495 15.9984 102.534 16.0474L110.285 26.3884H113.432V9.24089H109.743V19.512ZM139.207 16.1552C137.651 15.2601 136.697 14.6626 136.697 13.702C136.697 12.7014 137.829 12.5523 138.503 12.5523C139.491 12.5523 140.584 12.8846 141.5 13.464L141.562 13.5031L142.759 10.2114L142.318 9.98907C141.181 9.41507 139.867 9.12436 138.41 9.12436C135.217 9.12436 132.987 11.0938 132.987 13.9144C132.987 15.2156 133.419 16.3438 134.265 17.2579C135.072 18.1544 136.166 18.7798 137.131 19.3316C138.682 20.2194 139.633 20.8152 139.633 21.857C139.633 22.9341 138.269 23.2195 137.546 23.2195C136.043 23.2195 134.951 22.4791 134.651 22.2518L133.922 21.7001L132.678 25.1198L132.782 25.1894C134.212 26.155 135.794 26.6239 137.617 26.6239C141.004 26.6239 143.461 24.5301 143.461 21.6457C143.461 18.6044 141.102 17.246 139.207 16.1552ZM123.497 23.1676C120.625 23.1676 118.84 21.1438 118.84 17.8859C118.84 14.6288 120.625 12.6046 123.497 12.6046C126.37 12.6046 128.155 14.6284 128.155 17.8859C128.155 21.1438 126.37 23.1676 123.497 23.1676H123.497ZM123.497 9.10254C121.143 9.10254 118.982 9.97548 117.412 11.5591L117.402 11.5694C115.858 13.184 115.007 15.4359 115.007 17.9106C115.007 20.5397 115.953 22.8703 117.671 24.4745C119.195 25.8811 121.209 26.6239 123.497 26.6239C125.866 26.6239 127.943 25.8181 129.508 24.2892C131.122 22.6825 132.011 20.4001 132.011 17.8632C132.011 15.5026 131.271 13.4096 129.87 11.8062C128.331 10.0628 126.068 9.10254 123.497 9.10254Z" fill="#003e75"/>
</svg>